<svg xmlns="http://www.w3.org/2000/svg" width="48.641" height="44.732"><path d="M48.344 20.269c-.086.619-.185 1.32-.277 2.092-.09.746-.17 1.424-.243 2.042-.716 6.06-.808 6.839-2.528 7.667-3.221 1.55-4.292 2.748-6.239 4.923a78.983 78.983 0 01-2.869 3.079c-4.116 4.167-9.372 4.66-11.621 4.66l-.176-.001-.07-.001-.07.001c-2.142.018-7.569-.379-11.798-4.659-1.2-1.215-2.086-2.206-2.869-3.079-1.946-2.175-3.018-3.373-6.239-4.923-1.721-.828-1.813-1.607-2.529-7.673l-.242-2.036c-.093-.772-.191-1.474-.278-2.092-.403-2.876-.67-4.775 1.098-5.891 1.446-.911 4.689-3.778 7.035-6.801C8.862 6.933 13.774 0 24.321 0s15.458 6.934 15.892 7.578c2.347 3.023 5.589 5.89 7.034 6.801 1.767 1.115 1.501 3.014 1.097 5.89zM16.95 3.426a17.38 17.38 0 00-2.427 1.24v6.343c0 .669.544 1.215 1.213 1.215s1.213-.545 1.213-1.215V3.426zm17.168 1.24a17.366 17.366 0 00-2.426-1.24v7.583c0 .669.544 1.215 1.213 1.215s1.213-.545 1.213-1.215V4.666zm12.062 11.41c-1.515-.955-4.969-3.935-7.572-7.297l-.047-.066c-.092-.138-1.273-1.88-3.693-3.554v5.851c0 1.084-.881 1.967-1.964 1.967s-1.964-.882-1.964-1.967V3.134c-1.845-.672-4.042-1.128-6.62-1.128-2.578 0-4.775.456-6.62 1.128v7.875c0 1.084-.881 1.967-1.964 1.967s-1.964-.882-1.964-1.967V5.158c-2.421 1.674-3.603 3.416-3.695 3.556l-.045.064C7.43 12.14 3.976 15.12 2.46 16.075c-.605.382-.572 1.13-.182 3.915.088.628.188 1.34.283 2.132l.242 2.04c.664 5.617.73 5.775 1.408 6.101 3.579 1.722 4.885 3.182 6.862 5.391.767.856 1.635 1.828 2.801 3.007 3.689 3.735 8.461 4.088 10.351 4.064l.094-.001.093.001c1.883.026 6.662-.33 10.351-4.064a77.68 77.68 0 002.801-3.007c1.977-2.209 3.284-3.669 6.863-5.391.677-.326.744-.484 1.407-6.096l.244-2.045c.095-.792.195-1.504.283-2.132.391-2.784.425-3.532-.181-3.914zM32.904 27.841c-3.032 0-5.5-2.456-5.5-5.475s2.467-5.474 5.5-5.474 5.5 2.456 5.5 5.474-2.467 5.475-5.5 5.475zm0-10.197c-2.618 0-4.749 2.119-4.749 4.723s2.13 4.723 4.749 4.723c2.619 0 4.749-2.119 4.749-4.723s-2.13-4.723-4.749-4.723zm0 8.283c-1.982 0-3.589-1.594-3.589-3.561 0-1.967 1.607-3.561 3.589-3.561s3.589 1.594 3.589 3.561c0 1.967-1.607 3.561-3.589 3.561zm-8.583 7.715c-1.01 0-2.991-.927-2.991-1.78h5.981c0 .778-1.981 1.78-2.99 1.78zm0-19.583a1.192 1.192 0 01-1.197-1.187c0-.655.536-1.187 1.197-1.187.66 0 1.196.532 1.196 1.187s-.536 1.187-1.196 1.187zm-8.732 13.782c-3.033 0-5.5-2.456-5.5-5.475s2.467-5.474 5.5-5.474c3.032 0 5.5 2.456 5.5 5.474s-2.468 5.475-5.5 5.475zm0-10.197c-2.619 0-4.749 2.119-4.749 4.723s2.13 4.723 4.749 4.723c2.618 0 4.749-2.119 4.749-4.723s-2.131-4.723-4.749-4.723zm0 8.283c-1.982 0-3.589-1.594-3.589-3.561 0-1.967 1.606-3.561 3.589-3.561 1.982 0 3.589 1.594 3.589 3.561 0 1.967-1.607 3.561-3.589 3.561z" fill-rule="evenodd" clip-rule="evenodd" fill="#fff"/></svg>